<mxfile host="app.diagrams.net" modified="2024-02-09T13:11:04.396Z" agent="Mozilla/5.0 (Windows NT 10.0; Win64; x64) AppleWebKit/537.36 (KHTML, like Gecko) Chrome/121.0.0.0 Safari/537.36" etag="TvPrGk_ezLQ2mcbcWdNA" version="23.1.1" type="device">
  <diagram name="Page-1" id="UhStz0WqBBh-Omh_S8fL">
    <mxGraphModel dx="1687" dy="2037" grid="1" gridSize="10" guides="1" tooltips="1" connect="1" arrows="1" fold="1" page="1" pageScale="1" pageWidth="827" pageHeight="1169" math="0" shadow="0">
      <root>
        <mxCell id="0" />
        <mxCell id="1" parent="0" />
        <mxCell id="mJvoUYVNbcw-1JD9j0XX-1" value="API" style="rounded=1;whiteSpace=wrap;html=1;" vertex="1" parent="1">
          <mxGeometry x="250" y="210" width="80" height="280" as="geometry" />
        </mxCell>
        <mxCell id="mJvoUYVNbcw-1JD9j0XX-39" style="edgeStyle=orthogonalEdgeStyle;rounded=0;orthogonalLoop=1;jettySize=auto;html=1;entryX=1;entryY=0.5;entryDx=0;entryDy=0;" edge="1" parent="1" source="mJvoUYVNbcw-1JD9j0XX-3" target="mJvoUYVNbcw-1JD9j0XX-1">
          <mxGeometry relative="1" as="geometry" />
        </mxCell>
        <mxCell id="mJvoUYVNbcw-1JD9j0XX-3" value="Controller" style="rounded=1;whiteSpace=wrap;html=1;verticalAlign=top;fillColor=#fff2cc;strokeColor=#d6b656;" vertex="1" parent="1">
          <mxGeometry x="350" y="210" width="150" height="280" as="geometry" />
        </mxCell>
        <mxCell id="mJvoUYVNbcw-1JD9j0XX-29" value="" style="edgeStyle=orthogonalEdgeStyle;rounded=0;orthogonalLoop=1;jettySize=auto;html=1;" edge="1" parent="1" source="mJvoUYVNbcw-1JD9j0XX-4" target="mJvoUYVNbcw-1JD9j0XX-3">
          <mxGeometry relative="1" as="geometry" />
        </mxCell>
        <mxCell id="mJvoUYVNbcw-1JD9j0XX-4" value="DTOs" style="rounded=1;whiteSpace=wrap;html=1;" vertex="1" parent="1">
          <mxGeometry x="530" y="210" width="80" height="280" as="geometry" />
        </mxCell>
        <mxCell id="mJvoUYVNbcw-1JD9j0XX-28" style="edgeStyle=orthogonalEdgeStyle;rounded=0;orthogonalLoop=1;jettySize=auto;html=1;entryX=1;entryY=0.5;entryDx=0;entryDy=0;" edge="1" parent="1" source="mJvoUYVNbcw-1JD9j0XX-5" target="mJvoUYVNbcw-1JD9j0XX-4">
          <mxGeometry relative="1" as="geometry" />
        </mxCell>
        <mxCell id="mJvoUYVNbcw-1JD9j0XX-5" value="Application" style="rounded=1;whiteSpace=wrap;html=1;verticalAlign=top;fillColor=#f8cecc;strokeColor=#b85450;" vertex="1" parent="1">
          <mxGeometry x="630" y="210" width="150" height="280" as="geometry" />
        </mxCell>
        <mxCell id="mJvoUYVNbcw-1JD9j0XX-12" style="edgeStyle=orthogonalEdgeStyle;rounded=0;orthogonalLoop=1;jettySize=auto;html=1;entryX=1;entryY=0.5;entryDx=0;entryDy=0;" edge="1" parent="1" source="mJvoUYVNbcw-1JD9j0XX-6" target="mJvoUYVNbcw-1JD9j0XX-7">
          <mxGeometry relative="1" as="geometry" />
        </mxCell>
        <mxCell id="mJvoUYVNbcw-1JD9j0XX-6" value="Data Access" style="rounded=1;whiteSpace=wrap;html=1;verticalAlign=top;fillColor=#dae8fc;strokeColor=#6c8ebf;" vertex="1" parent="1">
          <mxGeometry x="920" y="210" width="190" height="280" as="geometry" />
        </mxCell>
        <mxCell id="mJvoUYVNbcw-1JD9j0XX-13" style="edgeStyle=orthogonalEdgeStyle;rounded=0;orthogonalLoop=1;jettySize=auto;html=1;entryX=1;entryY=0.5;entryDx=0;entryDy=0;" edge="1" parent="1" source="mJvoUYVNbcw-1JD9j0XX-7" target="mJvoUYVNbcw-1JD9j0XX-5">
          <mxGeometry relative="1" as="geometry" />
        </mxCell>
        <mxCell id="mJvoUYVNbcw-1JD9j0XX-7" value="Entities" style="rounded=1;whiteSpace=wrap;html=1;" vertex="1" parent="1">
          <mxGeometry x="800" y="210" width="100" height="280" as="geometry" />
        </mxCell>
        <mxCell id="mJvoUYVNbcw-1JD9j0XX-9" value="GenericRepo" style="rounded=1;whiteSpace=wrap;html=1;verticalAlign=top;fillColor=#dae8fc;strokeColor=#6c8ebf;" vertex="1" parent="1">
          <mxGeometry x="930" y="270" width="170" height="40" as="geometry" />
        </mxCell>
        <mxCell id="mJvoUYVNbcw-1JD9j0XX-24" style="edgeStyle=orthogonalEdgeStyle;rounded=0;orthogonalLoop=1;jettySize=auto;html=1;entryX=0.5;entryY=1;entryDx=0;entryDy=0;" edge="1" parent="1" source="mJvoUYVNbcw-1JD9j0XX-10" target="mJvoUYVNbcw-1JD9j0XX-9">
          <mxGeometry relative="1" as="geometry" />
        </mxCell>
        <mxCell id="mJvoUYVNbcw-1JD9j0XX-10" value="ReadRepo" style="rounded=1;whiteSpace=wrap;html=1;verticalAlign=top;fillColor=#dae8fc;strokeColor=#6c8ebf;" vertex="1" parent="1">
          <mxGeometry x="932.5" y="340" width="165" height="40" as="geometry" />
        </mxCell>
        <mxCell id="mJvoUYVNbcw-1JD9j0XX-22" style="edgeStyle=orthogonalEdgeStyle;rounded=0;orthogonalLoop=1;jettySize=auto;html=1;entryX=0.5;entryY=1;entryDx=0;entryDy=0;" edge="1" parent="1" source="mJvoUYVNbcw-1JD9j0XX-14" target="mJvoUYVNbcw-1JD9j0XX-15">
          <mxGeometry relative="1" as="geometry" />
        </mxCell>
        <mxCell id="mJvoUYVNbcw-1JD9j0XX-14" value="ReadService: ReadRepo" style="rounded=1;whiteSpace=wrap;html=1;verticalAlign=top;fillColor=#f8cecc;strokeColor=#b85450;" vertex="1" parent="1">
          <mxGeometry x="640" y="360" width="130" height="40" as="geometry" />
        </mxCell>
        <mxCell id="mJvoUYVNbcw-1JD9j0XX-15" value="GenericService: Generic Repo" style="rounded=1;whiteSpace=wrap;html=1;verticalAlign=top;fillColor=#f8cecc;strokeColor=#b85450;" vertex="1" parent="1">
          <mxGeometry x="640" y="300" width="130" height="40" as="geometry" />
        </mxCell>
        <mxCell id="mJvoUYVNbcw-1JD9j0XX-21" style="edgeStyle=orthogonalEdgeStyle;rounded=0;orthogonalLoop=1;jettySize=auto;html=1;entryX=0.5;entryY=1;entryDx=0;entryDy=0;" edge="1" parent="1" source="mJvoUYVNbcw-1JD9j0XX-16" target="mJvoUYVNbcw-1JD9j0XX-14">
          <mxGeometry relative="1" as="geometry" />
        </mxCell>
        <mxCell id="mJvoUYVNbcw-1JD9j0XX-16" value="Mapper, Validation, MediatR" style="rounded=1;whiteSpace=wrap;html=1;verticalAlign=top;fillColor=#f8cecc;strokeColor=#b85450;" vertex="1" parent="1">
          <mxGeometry x="640" y="420" width="130" height="40" as="geometry" />
        </mxCell>
        <mxCell id="mJvoUYVNbcw-1JD9j0XX-27" style="edgeStyle=orthogonalEdgeStyle;rounded=0;orthogonalLoop=1;jettySize=auto;html=1;entryX=0.5;entryY=1;entryDx=0;entryDy=0;" edge="1" parent="1" source="mJvoUYVNbcw-1JD9j0XX-26" target="mJvoUYVNbcw-1JD9j0XX-10">
          <mxGeometry relative="1" as="geometry" />
        </mxCell>
        <mxCell id="mJvoUYVNbcw-1JD9j0XX-26" value="DbContext, DbSet, Class" style="rounded=1;whiteSpace=wrap;html=1;verticalAlign=top;fillColor=#dae8fc;strokeColor=#6c8ebf;" vertex="1" parent="1">
          <mxGeometry x="932.5" y="400" width="165" height="40" as="geometry" />
        </mxCell>
        <mxCell id="mJvoUYVNbcw-1JD9j0XX-36" style="edgeStyle=orthogonalEdgeStyle;rounded=0;orthogonalLoop=1;jettySize=auto;html=1;entryX=0.5;entryY=1;entryDx=0;entryDy=0;" edge="1" parent="1" source="mJvoUYVNbcw-1JD9j0XX-30" target="mJvoUYVNbcw-1JD9j0XX-35">
          <mxGeometry relative="1" as="geometry" />
        </mxCell>
        <mxCell id="mJvoUYVNbcw-1JD9j0XX-30" value="Service Implementation&amp;lt;Class&amp;gt;" style="rounded=1;whiteSpace=wrap;html=1;verticalAlign=top;fillColor=#fff2cc;strokeColor=#d6b656;" vertex="1" parent="1">
          <mxGeometry x="360" y="360" width="130" height="40" as="geometry" />
        </mxCell>
        <mxCell id="mJvoUYVNbcw-1JD9j0XX-34" value="Service Implementation&amp;lt;Class&amp;gt;" style="rounded=1;whiteSpace=wrap;html=1;verticalAlign=top;fillColor=#f8cecc;strokeColor=#b85450;" vertex="1" parent="1">
          <mxGeometry x="640" y="240" width="130" height="40" as="geometry" />
        </mxCell>
        <mxCell id="mJvoUYVNbcw-1JD9j0XX-35" value="Controller&amp;lt;Class&amp;gt;" style="rounded=1;whiteSpace=wrap;html=1;verticalAlign=top;fillColor=#fff2cc;strokeColor=#d6b656;" vertex="1" parent="1">
          <mxGeometry x="360" y="290" width="130" height="40" as="geometry" />
        </mxCell>
        <mxCell id="mJvoUYVNbcw-1JD9j0XX-38" style="edgeStyle=orthogonalEdgeStyle;rounded=0;orthogonalLoop=1;jettySize=auto;html=1;entryX=0.5;entryY=1;entryDx=0;entryDy=0;" edge="1" parent="1" source="mJvoUYVNbcw-1JD9j0XX-37" target="mJvoUYVNbcw-1JD9j0XX-30">
          <mxGeometry relative="1" as="geometry" />
        </mxCell>
        <mxCell id="mJvoUYVNbcw-1JD9j0XX-37" value="DependencyInjection" style="rounded=1;whiteSpace=wrap;html=1;verticalAlign=top;fillColor=#fff2cc;strokeColor=#d6b656;" vertex="1" parent="1">
          <mxGeometry x="360" y="420" width="130" height="40" as="geometry" />
        </mxCell>
        <mxCell id="mJvoUYVNbcw-1JD9j0XX-41" value="" style="outlineConnect=0;dashed=0;verticalLabelPosition=bottom;verticalAlign=top;align=center;html=1;shape=mxgraph.aws3.mysql_db_instance;fillColor=#2E73B8;gradientColor=none;" vertex="1" parent="1">
          <mxGeometry x="1190" y="285.5" width="120" height="114.5" as="geometry" />
        </mxCell>
        <mxCell id="mJvoUYVNbcw-1JD9j0XX-42" style="edgeStyle=orthogonalEdgeStyle;rounded=0;orthogonalLoop=1;jettySize=auto;html=1;entryX=1.019;entryY=0.473;entryDx=0;entryDy=0;entryPerimeter=0;" edge="1" parent="1" source="mJvoUYVNbcw-1JD9j0XX-41" target="mJvoUYVNbcw-1JD9j0XX-6">
          <mxGeometry relative="1" as="geometry" />
        </mxCell>
        <mxCell id="mJvoUYVNbcw-1JD9j0XX-43" value="&lt;figure name=&quot;a607&quot; class=&quot;graf graf--figure&quot;&gt;&lt;img class=&quot;graf-image&quot; data-image-id=&quot;0*adPQu9Ra2Btz2Nkk.png&quot; data-width=&quot;700&quot; data-height=&quot;190&quot; src=&quot;https://cdn-images-1.medium.com/max/800/0*adPQu9Ra2Btz2Nkk.png&quot;&gt;&lt;/figure&gt;" style="text;whiteSpace=wrap;html=1;" vertex="1" parent="1">
          <mxGeometry x="304" y="540" width="110" height="60" as="geometry" />
        </mxCell>
        <mxCell id="mJvoUYVNbcw-1JD9j0XX-44" value="API" style="rounded=1;whiteSpace=wrap;html=1;" vertex="1" parent="1">
          <mxGeometry x="220" y="-230" width="80" height="280" as="geometry" />
        </mxCell>
        <mxCell id="mJvoUYVNbcw-1JD9j0XX-45" style="edgeStyle=orthogonalEdgeStyle;rounded=0;orthogonalLoop=1;jettySize=auto;html=1;entryX=1;entryY=0.5;entryDx=0;entryDy=0;" edge="1" parent="1" source="mJvoUYVNbcw-1JD9j0XX-46" target="mJvoUYVNbcw-1JD9j0XX-44">
          <mxGeometry relative="1" as="geometry" />
        </mxCell>
        <mxCell id="mJvoUYVNbcw-1JD9j0XX-46" value="Controller" style="rounded=1;whiteSpace=wrap;html=1;verticalAlign=top;fillColor=#fff2cc;strokeColor=#d6b656;" vertex="1" parent="1">
          <mxGeometry x="320" y="-230" width="150" height="280" as="geometry" />
        </mxCell>
        <mxCell id="mJvoUYVNbcw-1JD9j0XX-47" value="" style="edgeStyle=orthogonalEdgeStyle;rounded=0;orthogonalLoop=1;jettySize=auto;html=1;" edge="1" parent="1" source="mJvoUYVNbcw-1JD9j0XX-48" target="mJvoUYVNbcw-1JD9j0XX-46">
          <mxGeometry relative="1" as="geometry" />
        </mxCell>
        <mxCell id="mJvoUYVNbcw-1JD9j0XX-48" value="DTOs" style="rounded=1;whiteSpace=wrap;html=1;" vertex="1" parent="1">
          <mxGeometry x="500" y="-230" width="80" height="280" as="geometry" />
        </mxCell>
        <mxCell id="mJvoUYVNbcw-1JD9j0XX-49" style="edgeStyle=orthogonalEdgeStyle;rounded=0;orthogonalLoop=1;jettySize=auto;html=1;entryX=1;entryY=0.5;entryDx=0;entryDy=0;" edge="1" parent="1" source="mJvoUYVNbcw-1JD9j0XX-50" target="mJvoUYVNbcw-1JD9j0XX-48">
          <mxGeometry relative="1" as="geometry" />
        </mxCell>
        <mxCell id="mJvoUYVNbcw-1JD9j0XX-50" value="Application" style="rounded=1;whiteSpace=wrap;html=1;verticalAlign=top;fillColor=#f8cecc;strokeColor=#b85450;" vertex="1" parent="1">
          <mxGeometry x="600" y="-230" width="150" height="280" as="geometry" />
        </mxCell>
        <mxCell id="mJvoUYVNbcw-1JD9j0XX-51" style="edgeStyle=orthogonalEdgeStyle;rounded=0;orthogonalLoop=1;jettySize=auto;html=1;entryX=1;entryY=0.5;entryDx=0;entryDy=0;" edge="1" parent="1" source="mJvoUYVNbcw-1JD9j0XX-52" target="mJvoUYVNbcw-1JD9j0XX-54">
          <mxGeometry relative="1" as="geometry" />
        </mxCell>
        <mxCell id="mJvoUYVNbcw-1JD9j0XX-52" value="Data Access" style="rounded=1;whiteSpace=wrap;html=1;verticalAlign=top;fillColor=#dae8fc;strokeColor=#6c8ebf;" vertex="1" parent="1">
          <mxGeometry x="890" y="-230" width="190" height="280" as="geometry" />
        </mxCell>
        <mxCell id="mJvoUYVNbcw-1JD9j0XX-53" style="edgeStyle=orthogonalEdgeStyle;rounded=0;orthogonalLoop=1;jettySize=auto;html=1;entryX=1;entryY=0.5;entryDx=0;entryDy=0;" edge="1" parent="1" source="mJvoUYVNbcw-1JD9j0XX-54" target="mJvoUYVNbcw-1JD9j0XX-50">
          <mxGeometry relative="1" as="geometry" />
        </mxCell>
        <mxCell id="mJvoUYVNbcw-1JD9j0XX-54" value="Entities" style="rounded=1;whiteSpace=wrap;html=1;" vertex="1" parent="1">
          <mxGeometry x="770" y="-230" width="100" height="280" as="geometry" />
        </mxCell>
        <mxCell id="mJvoUYVNbcw-1JD9j0XX-55" value="GenericRepo" style="rounded=1;whiteSpace=wrap;html=1;verticalAlign=top;fillColor=#dae8fc;strokeColor=#6c8ebf;" vertex="1" parent="1">
          <mxGeometry x="900" y="-170" width="170" height="40" as="geometry" />
        </mxCell>
        <mxCell id="mJvoUYVNbcw-1JD9j0XX-56" style="edgeStyle=orthogonalEdgeStyle;rounded=0;orthogonalLoop=1;jettySize=auto;html=1;entryX=0.5;entryY=1;entryDx=0;entryDy=0;" edge="1" parent="1" source="mJvoUYVNbcw-1JD9j0XX-57" target="mJvoUYVNbcw-1JD9j0XX-55">
          <mxGeometry relative="1" as="geometry" />
        </mxCell>
        <mxCell id="mJvoUYVNbcw-1JD9j0XX-57" value="ReadRepo" style="rounded=1;whiteSpace=wrap;html=1;verticalAlign=top;fillColor=#dae8fc;strokeColor=#6c8ebf;" vertex="1" parent="1">
          <mxGeometry x="902.5" y="-100" width="165" height="40" as="geometry" />
        </mxCell>
        <mxCell id="mJvoUYVNbcw-1JD9j0XX-58" style="edgeStyle=orthogonalEdgeStyle;rounded=0;orthogonalLoop=1;jettySize=auto;html=1;entryX=0.5;entryY=1;entryDx=0;entryDy=0;" edge="1" parent="1" source="mJvoUYVNbcw-1JD9j0XX-59" target="mJvoUYVNbcw-1JD9j0XX-60">
          <mxGeometry relative="1" as="geometry" />
        </mxCell>
        <mxCell id="mJvoUYVNbcw-1JD9j0XX-59" value="ReadService: ReadRepo" style="rounded=1;whiteSpace=wrap;html=1;verticalAlign=top;fillColor=#f8cecc;strokeColor=#b85450;" vertex="1" parent="1">
          <mxGeometry x="610" y="-80" width="130" height="40" as="geometry" />
        </mxCell>
        <mxCell id="mJvoUYVNbcw-1JD9j0XX-60" value="GenericService: Generic Repo" style="rounded=1;whiteSpace=wrap;html=1;verticalAlign=top;fillColor=#f8cecc;strokeColor=#b85450;" vertex="1" parent="1">
          <mxGeometry x="610" y="-140" width="130" height="40" as="geometry" />
        </mxCell>
        <mxCell id="mJvoUYVNbcw-1JD9j0XX-61" style="edgeStyle=orthogonalEdgeStyle;rounded=0;orthogonalLoop=1;jettySize=auto;html=1;entryX=0.5;entryY=1;entryDx=0;entryDy=0;" edge="1" parent="1" source="mJvoUYVNbcw-1JD9j0XX-62" target="mJvoUYVNbcw-1JD9j0XX-59">
          <mxGeometry relative="1" as="geometry" />
        </mxCell>
        <mxCell id="mJvoUYVNbcw-1JD9j0XX-62" value="Mapper, Validation, MediatR" style="rounded=1;whiteSpace=wrap;html=1;verticalAlign=top;fillColor=#f8cecc;strokeColor=#b85450;" vertex="1" parent="1">
          <mxGeometry x="610" y="-20" width="130" height="40" as="geometry" />
        </mxCell>
        <mxCell id="mJvoUYVNbcw-1JD9j0XX-63" style="edgeStyle=orthogonalEdgeStyle;rounded=0;orthogonalLoop=1;jettySize=auto;html=1;entryX=0.5;entryY=1;entryDx=0;entryDy=0;" edge="1" parent="1" source="mJvoUYVNbcw-1JD9j0XX-64" target="mJvoUYVNbcw-1JD9j0XX-57">
          <mxGeometry relative="1" as="geometry" />
        </mxCell>
        <mxCell id="mJvoUYVNbcw-1JD9j0XX-64" value="DbContext, DbSet, Class" style="rounded=1;whiteSpace=wrap;html=1;verticalAlign=top;fillColor=#dae8fc;strokeColor=#6c8ebf;" vertex="1" parent="1">
          <mxGeometry x="902.5" y="-40" width="165" height="40" as="geometry" />
        </mxCell>
        <mxCell id="mJvoUYVNbcw-1JD9j0XX-65" style="edgeStyle=orthogonalEdgeStyle;rounded=0;orthogonalLoop=1;jettySize=auto;html=1;entryX=0.5;entryY=1;entryDx=0;entryDy=0;" edge="1" parent="1" source="mJvoUYVNbcw-1JD9j0XX-66" target="mJvoUYVNbcw-1JD9j0XX-68">
          <mxGeometry relative="1" as="geometry" />
        </mxCell>
        <mxCell id="mJvoUYVNbcw-1JD9j0XX-66" value="Service Implementation&amp;lt;Class&amp;gt;" style="rounded=1;whiteSpace=wrap;html=1;verticalAlign=top;fillColor=#fff2cc;strokeColor=#d6b656;" vertex="1" parent="1">
          <mxGeometry x="330" y="-80" width="130" height="40" as="geometry" />
        </mxCell>
        <mxCell id="mJvoUYVNbcw-1JD9j0XX-67" value="Service Implementation&amp;lt;Class&amp;gt;" style="rounded=1;whiteSpace=wrap;html=1;verticalAlign=top;fillColor=#f8cecc;strokeColor=#b85450;" vertex="1" parent="1">
          <mxGeometry x="610" y="-200" width="130" height="40" as="geometry" />
        </mxCell>
        <mxCell id="mJvoUYVNbcw-1JD9j0XX-68" value="Controller&amp;lt;Class&amp;gt;" style="rounded=1;whiteSpace=wrap;html=1;verticalAlign=top;fillColor=#fff2cc;strokeColor=#d6b656;" vertex="1" parent="1">
          <mxGeometry x="330" y="-150" width="130" height="40" as="geometry" />
        </mxCell>
        <mxCell id="mJvoUYVNbcw-1JD9j0XX-69" style="edgeStyle=orthogonalEdgeStyle;rounded=0;orthogonalLoop=1;jettySize=auto;html=1;entryX=0.5;entryY=1;entryDx=0;entryDy=0;" edge="1" parent="1" source="mJvoUYVNbcw-1JD9j0XX-70" target="mJvoUYVNbcw-1JD9j0XX-66">
          <mxGeometry relative="1" as="geometry" />
        </mxCell>
        <mxCell id="mJvoUYVNbcw-1JD9j0XX-70" value="DependencyInjection" style="rounded=1;whiteSpace=wrap;html=1;verticalAlign=top;fillColor=#fff2cc;strokeColor=#d6b656;" vertex="1" parent="1">
          <mxGeometry x="330" y="-20" width="130" height="40" as="geometry" />
        </mxCell>
        <mxCell id="mJvoUYVNbcw-1JD9j0XX-71" value="" style="outlineConnect=0;dashed=0;verticalLabelPosition=bottom;verticalAlign=top;align=center;html=1;shape=mxgraph.aws3.mysql_db_instance;fillColor=#2E73B8;gradientColor=none;" vertex="1" parent="1">
          <mxGeometry x="1160" y="-154.5" width="120" height="114.5" as="geometry" />
        </mxCell>
        <mxCell id="mJvoUYVNbcw-1JD9j0XX-72" style="edgeStyle=orthogonalEdgeStyle;rounded=0;orthogonalLoop=1;jettySize=auto;html=1;entryX=1.019;entryY=0.473;entryDx=0;entryDy=0;entryPerimeter=0;" edge="1" parent="1" source="mJvoUYVNbcw-1JD9j0XX-71" target="mJvoUYVNbcw-1JD9j0XX-52">
          <mxGeometry relative="1" as="geometry" />
        </mxCell>
      </root>
    </mxGraphModel>
  </diagram>
</mxfile>
